# xmcd CD database file
#
# Track frame offsets:
#	150
#	28410
#	46152
#	57500
#	69085
#	94055
#	98917
#	120260
#	142325
#	161602
#	179460
#	214112
#	249222
#	267052
#	283295
#	293712
#	310610
#
# Disc length: 4394 seconds
#
# Revision: 1
# Processed by: cddbd v1.5.1PL0 Copyright (c) Steve Scherf et al.
# Submitted via: CDex 1.51
#
DISCID=f7112811
DTITLE=友川かずき - 星のプロセス [CD2]
DYEAR=1900
DGENRE=
TTITLE0=姥捨山の守り花
TTITLE1=ちいさな詩
TTITLE2=生きてるって言ってみろ
TTITLE3=冬は莫迦くへなぁ
TTITLE4=乱れどんぱん節
TTITLE5=電話
TTITLE6=首
TTITLE7=永遠
TTITLE8=湖上
TTITLE9=ワルツ
TTITLE10=坊や
TTITLE11=覚
TTITLE12=木々は春
TTITLE13=餅紅の花
TTITLE14=なあ海
TTITLE15=おとうと
TTITLE16=海みたいな空だ
EXTD=
EXTT0=
EXTT1=
EXTT2=
EXTT3=
EXTT4=
EXTT5=
EXTT6=
EXTT7=
EXTT8=
EXTT9=
EXTT10=
EXTT11=
EXTT12=
EXTT13=
EXTT14=
EXTT15=
EXTT16=
PLAYORDER=
